<?xml version="1.0" encoding="utf-8"?>
<!-- Generator: Adobe Illustrator 17.1.0, SVG Export Plug-In . SVG Version: 6.00 Build 0)  -->
<!DOCTYPE svg PUBLIC "-//W3C//DTD SVG 1.1//EN" "http://www.w3.org/Graphics/SVG/1.1/DTD/svg11.dtd">
<svg version="1.1" id="Layer_1" xmlns="http://www.w3.org/2000/svg" xmlns:xlink="http://www.w3.org/1999/xlink" x="0px" y="0px"
	 viewBox="-270.4 -198 1296 720" enable-background="new -270.4 -198 1296 720" xml:space="preserve">
<g>
	<path fill="#FFFFFF" d="M416.8,166.9c0,2.1,2,2.5,3.7,2.5s3.6-0.4,3.6-2.5s0-2.6,0-2.6s-0.9-0.2-2.4-0.2
		C420.1,164.2,416.8,164.4,416.8,166.9z"/>
	<path fill="#FFFFFF" d="M374.4,159.6c-2.3,0-3.2,1-3.5,3.9h6.9C377.7,161.9,377.1,159.6,374.4,159.6z"/>
	<path fill="#FFFFFF" d="M434.8,159.1c-1.2,0-2.3,0.2-3.3,0.7v7.3c0,1.6,1.2,2.4,3.6,2.4c1.7,0,4-0.5,4-5.4
		C439.1,160.6,437.8,159.1,434.8,159.1z"/>
	<path fill="#FFFFFF" d="M359.3,159.5c-2.1,0-3.1,0.7-3.1,2v7c0.9,0.3,1.9,0.5,2.9,0.5c1.9,0,3.7-0.5,3.7-4.6
		C362.8,160.1,361,159.5,359.3,159.5z"/>
	<path fill="#FFFFFF" d="M341.5,166.8c0,1.5,1.1,2.3,3.2,2.3s3.1-0.7,3.1-2.2v-2.2c-0.6-0.1-1.5-0.2-2.4-0.2
		C344.4,164.5,341.5,164.9,341.5,166.8z"/>
	<path fill="#FFFFFF" d="M156,0v360h480V0H156z M411.5,171h-1.9v-18.6h1.9V171z M426.1,167c0,3.7-3.8,4.3-5.5,4.3s-5.6-0.5-5.6-4.3
		c0-4.5,5.8-4.4,7-4.4s2.2,0.1,2.2,0.1c0-2.5-1.5-3.3-3.9-3.3c-1.9,0-3.4,0.5-3.9,0.6v-2c1-0.3,2.4-0.7,4.1-0.7
		c3.8,0,5.8,1.9,5.8,5.6v4.1H426.1z M435.1,171.3c-5.1,0-5.5-3.3-5.5-4.3v-14.6h1.9v5.5c1.1-0.3,2.2-0.5,3.3-0.5
		c2.8,0,6.2,1.2,6.2,6.8C441,170.3,437.3,171.3,435.1,171.3z M448.3,171.3c-1.8,0-3.1-0.5-4.1-1v-2.1c1.2,0.7,2.6,1.2,4,1.2
		s3.1-0.3,3.1-1.9c0-3.6-7.2-1.5-7.2-6.3c0-1.9,1.3-3.9,4.8-3.9c1.4,0,2.6,0.4,3.5,0.8v1.9c-0.7-0.4-1.8-0.9-3.2-0.9
		c-1.4,0-3,0.3-3,2.1c0,2.7,7.2,1,7.2,6.3C453.2,169.8,451.3,171.3,448.3,171.3z"/>
</g>
<rect x="330.5" y="145.2" fill="#ED2E55" width="72.1" height="35.7"/>
<g enable-background="new    ">
	<path fill="#FFFFFF" d="M350.4,163.2v3.8c0,1-0.4,4.2-5.4,4.2c-5.1,0-5.5-3.3-5.5-4.3c0-2.6,2.3-4.1,6.1-4.1c0.8,0,1.6,0.1,2.4,0.2
		c-0.1-2.1-1-3.1-3.6-3.1c-1.5,0-2.8,0.4-3.6,0.7v-2c1-0.4,2.3-0.7,3.9-0.7C348.4,157.7,350.4,159.7,350.4,163.2z M348,164.8
		c-0.6-0.1-1.4-0.2-2.3-0.2c-1.1,0-3.9,0.3-3.9,2.2c0,1.5,1.1,2.2,3.1,2.2s3-0.7,3-2.1L348,164.8L348,164.8z"/>
	<path fill="#FFFFFF" d="M358.9,171.2c-0.9,0-1.9-0.1-2.8-0.4v5.1h-2.4v-14c0-1,0.4-4.2,5.4-4.2c2.1,0,5.8,0.9,5.8,6.9
		C364.9,170,361.6,171.2,358.9,171.2z M359.1,159.8c-2,0-3,0.7-3,2v6.7c0.9,0.3,1.8,0.5,2.8,0.5c1.9,0,3.6-0.5,3.6-4.4
		C362.5,160.4,360.7,159.8,359.1,159.8z"/>
	<path fill="#FFFFFF" d="M378.6,168.2v2.2c-1.2,0.5-2.8,0.9-4.6,0.9c-2.7,0-6-1.2-6-6.6c0-1.7,0-6.9,5.8-6.9c3.5,0,5.8,2.5,5.8,6.3
		c0,0.6,0,1.2-0.1,1.8h-9c0.4,2.7,2,3.3,3.7,3.3C376,169.2,377.5,168.8,378.6,168.2z M370.4,163.7h6.7c-0.1-1.5-0.8-3.8-3.3-3.8
		C371.5,159.9,370.6,160.9,370.4,163.7z"/>
	<path fill="#FFFFFF" d="M393.4,171h-2.9l-3.2-4.5l-3.2,4.5h-2.9l4.7-6.5l-4.6-6.5h2.9l3.1,4.4l3.1-4.4h2.9l-4.6,6.4L393.4,171z"/>
</g>
<rect x="-270.4" y="-198" fill="#FFFFFF" width="426.4" height="720"/>
<rect x="636" y="-198" fill="#FFFFFF" width="389.6" height="720"/>
<rect x="156" y="360" fill="#FFFFFF" width="482" height="162"/>
<rect x="156" y="-198" fill="#FFFFFF" width="480" height="162"/>
</svg>
