<?xml version="1.0" encoding="utf-8"?>
<!-- Generator: Adobe Illustrator 17.1.0, SVG Export Plug-In . SVG Version: 6.00 Build 0)  -->
<!DOCTYPE svg PUBLIC "-//W3C//DTD SVG 1.1//EN" "http://www.w3.org/Graphics/SVG/1.1/DTD/svg11.dtd">
<svg version="1.1" id="Layer_1" xmlns="http://www.w3.org/2000/svg" xmlns:xlink="http://www.w3.org/1999/xlink" x="0px" y="0px"
	 viewBox="0 0 4000 3000" enable-background="new 0 0 4000 3000" xml:space="preserve">
<path fill="#FFFFFF" d="M1836.9,1488h-2.9v24h2.1c3.5,0,6.1-1,7.7-3.1s2.5-5.2,2.5-9.4c0-3.9-0.8-6.8-2.3-8.7
	C1842.5,1488.9,1840.1,1488,1836.9,1488z"/>
<path fill="#FFFFFF" d="M1942.3,1487.4c-5.8,0-8.7,4.2-8.7,12.5s2.9,12.4,8.6,12.4c2.9,0,5.1-1,6.5-3s2.1-5.1,2.1-9.4
	s-0.7-7.4-2.2-9.5C1947.3,1488.5,1945.1,1487.4,1942.3,1487.4z"/>
<g>
	<path fill="#FFFFFF" d="M2173.6,1390.9c0,17.8,16.9,21.2,30.8,21.2c14,0,29.9-3.4,29.9-20.5c0-17.3,0-21.6,0-21.6s-7.4-1.4-20-1.4
		C2200.8,1368.6,2173.6,1370.2,2173.6,1390.9z"/>
	<path fill="#FFFFFF" d="M1820.1,1329.7c-18.9,0-27,8.6-28.8,32.6h57.6C1847.8,1349.3,1842.4,1329.7,1820.1,1329.7z"/>
	<path fill="#FFFFFF" d="M2323.4,1326.1c-9.7,0-18.9,2-27.7,5.6v60.8c0,13.3,9.9,19.8,29.7,19.8c14.2,0,33.3-4.5,33.3-44.6
		C2358.8,1338.5,2348.2,1326.1,2323.4,1326.1z"/>
	<path fill="#FFFFFF" d="M1694.5,1329.3c-17.1,0-25.9,5.6-25.9,16.9v58.1c7.7,2.9,15.5,4.5,23.9,4.5c16.2,0,31.1-4.5,31.1-38.3
		C1723.6,1334,1708,1329.3,1694.5,1329.3z"/>
	<path fill="#FFFFFF" d="M1546,1389.8c0,12.8,9.2,19.1,27,19.1c17.1,0,25.9-6.1,25.9-18.5v-18.2c-5.4-0.9-12.1-1.4-19.6-1.4
		C1569.7,1370.9,1546,1373.8,1546,1389.8z"/>
	<path fill="#FFFFFF" d="M0,0v3000h4000V0H0z M2129.5,1425.3h-16.2v-155h16.2V1425.3z M2250.5,1391.6c0,31.1-31.5,35.6-46.1,35.6
		c-14.6,0-47-4.5-47-36.2c0-37.1,48.4-36.9,58.7-36.9c10.1,0,18,1.1,18,1.1c0-21.2-12.6-27.9-32.9-27.9c-16.2,0-28.6,3.8-32.9,5.4
		v-15.8c8.3-2.9,19.8-5.9,33.8-5.9c31.5,0,48.4,16.2,48.4,46.8V1391.6z M2325.5,1427.1c-42.8,0-45.9-27.2-45.9-35.6v-121.5h16.2
		v45.5c8.8-2.9,18.2-4.5,27.7-4.5c23.4,0,51.5,9.9,51.5,56.7C2375,1419.5,2343.9,1427.1,2325.5,1427.1z M2435.5,1427.1
		c-14.9,0-25.9-4-34-8.5v-17.1c9.9,6.1,21.6,9.9,33.3,9.9c11.7,0,25.7-2.7,25.7-15.5c0-30.2-60.3-12.8-60.3-52.2
		c0-15.8,10.6-32.6,39.8-32.6c11.7,0,21.4,3.4,28.8,7v16.2c-6.1-3.6-15.3-7.7-27-7.7c-11.5,0-25.4,2.9-25.4,17.1
		c0,22.1,60.3,8.1,60.3,52.2C2476.7,1415.4,2461.1,1427.1,2435.5,1427.1z"/>
</g>
<rect x="1454.3" y="1210.3" fill="#ED2E55" width="600.7" height="297.1"/>
<text transform="matrix(1 0 0 1 1516.8857 1424.834)" fill="#FFFFFF" font-family="'MavenProMedium'" font-size="217.8382">apex</text>
</svg>
